<svg xmlns="http://www.w3.org/2000/svg" version="1.1" xmlns:xlink="http://www.w3.org/1999/xlink" xmlns:svgjs="http://svgjs.dev/svgjs" width="2000" height="974" viewBox="0 0 2000 974"><g transform="matrix(1,0,0,1,-1.2101491338936512,-0.8826634437386929)"><svg viewBox="0 0 396 193" data-background-color="#ede1d1" preserveAspectRatio="xMidYMid meet" height="974" width="2000" xmlns="http://www.w3.org/2000/svg" xmlns:xlink="http://www.w3.org/1999/xlink"><g id="tight-bounds" transform="matrix(1,0,0,1,0.24039047148903592,0.1749014832048914)"><svg viewBox="0 0 395.52 192.6496585801688" height="192.6496585801688" width="395.52"><g><svg viewBox="0 0 395.52 192.6496585801688" height="192.6496585801688" width="395.52"><g transform="matrix(1,0,0,1,0,127.35639286111028)"><svg viewBox="0 0 395.52 65.29326571905851" height="65.29326571905851" width="395.52"><g id="textblocktransform"><svg viewBox="0 0 395.52 65.29326571905851" height="65.29326571905851" width="395.52" id="textblock"><g><svg viewBox="0 0 395.52 65.29326571905851" height="65.29326571905851" width="395.52"><g transform="matrix(1,0,0,1,0,0)"><svg width="395.52" viewBox="1.5167723359853507 -36.5217 293.81925204510134 48.504300000000015" height="65.29326571905851" data-palette-color="#6a704c"><path d="M27.568-11.641v0l-3.248 1.942c-0.839-1.653-1.986-2.839-3.442-3.56-1.456-0.72-3.095-0.931-4.917-0.632v0c-0.98 0.161-1.83 0.459-2.549 0.895-0.719 0.436-1.324 0.971-1.814 1.605-0.49 0.634-0.878 1.34-1.162 2.116-0.29 0.784-0.494 1.601-0.611 2.452-0.124 0.851-0.171 1.717-0.142 2.597 0.03 0.88 0.111 1.725 0.244 2.534v0c0.144 0.875 0.338 1.748 0.582 2.62 0.238 0.873 0.539 1.698 0.903 2.477 0.364 0.778 0.795 1.488 1.292 2.128 0.497 0.641 1.078 1.178 1.744 1.609 0.664 0.425 1.422 0.722 2.274 0.894 0.846 0.172 1.792 0.172 2.838 0v0c0.842-0.138 1.624-0.398 2.345-0.78 0.716-0.374 1.355-0.844 1.917-1.409 0.556-0.564 1.029-1.203 1.418-1.915 0.389-0.719 0.661-1.49 0.816-2.313v0l3.704 0.709c-0.313 1.342-0.83 2.538-1.549 3.589-0.712 1.056-1.565 1.97-2.56 2.741-1 0.779-2.102 1.413-3.306 1.9-1.204 0.488-2.45 0.838-3.739 1.05v0c-2.072 0.34-4.054 0.304-5.946-0.109-1.892-0.412-3.59-1.15-5.096-2.213-1.499-1.065-2.757-2.412-3.775-4.042-1.019-1.637-1.7-3.501-2.043-5.593v0c-0.346-2.105-0.301-4.099 0.133-5.981 0.435-1.875 1.19-3.553 2.265-5.033 1.074-1.48 2.443-2.715 4.104-3.704 1.662-0.989 3.545-1.656 5.651-2.001v0c1.335-0.219 2.662-0.288 3.979-0.208 1.318 0.088 2.57 0.348 3.756 0.782 1.186 0.434 2.286 1.047 3.302 1.84 1.015 0.793 1.893 1.797 2.632 3.013zM61.471-10.89v0c0.235 1.865 0.253 3.839 0.052 5.92-0.194 2.081-0.576 4.145-1.144 6.192-0.568 2.047-1.31 3.999-2.224 5.855-0.915 1.856-1.972 3.491-3.171 4.906v0l-3.244-1.264c0.329-0.855 0.623-1.799 0.883-2.833 0.258-1.041 0.473-2.133 0.644-3.276 0.164-1.15 0.297-2.329 0.401-3.538 0.096-1.208 0.157-2.402 0.183-3.581 0.019-1.178 0.003-2.319-0.049-3.421-0.052-1.102-0.137-2.123-0.256-3.062v0c-0.078-0.622-0.186-1.287-0.322-1.996-0.136-0.702-0.324-1.397-0.566-2.085-0.241-0.689-0.529-1.344-0.863-1.968-0.341-0.622-0.754-1.155-1.24-1.597-0.485-0.436-1.044-0.769-1.678-0.998-0.64-0.228-1.364-0.291-2.171-0.189v0c-0.8 0.101-1.489 0.369-2.065 0.805-0.576 0.442-1.065 0.984-1.468 1.626-0.41 0.636-0.736 1.353-0.978 2.15-0.25 0.791-0.434 1.594-0.553 2.408-0.111 0.82-0.169 1.617-0.172 2.39 0.004 0.779 0.045 1.473 0.121 2.081v0l1.747 13.84-8.106 1.024-4.768-37.781 8.076-1.019 1.796 14.227c0.847-1.646 1.973-2.974 3.377-3.984 1.405-1.01 3.023-1.631 4.855-1.863v0c1.911-0.241 3.614-0.14 5.108 0.303 1.501 0.442 2.79 1.156 3.869 2.142 1.079 0.993 1.947 2.22 2.602 3.684 0.655 1.463 1.096 3.097 1.324 4.902zM73.822-9.167v0c1.009 0.141 2.017 0.233 3.024 0.274 1.001 0.048 2.006 0.029 3.017-0.057v0c1.056-0.09 2.027-0.277 2.913-0.56 0.886-0.276 1.642-0.679 2.265-1.207 0.624-0.528 1.095-1.201 1.414-2.017 0.318-0.817 0.428-1.81 0.327-2.979v0c-0.081-0.943-0.284-1.796-0.609-2.557-0.319-0.762-0.756-1.404-1.309-1.926-0.552-0.515-1.211-0.897-1.975-1.146-0.764-0.249-1.634-0.332-2.61-0.249v0c-0.91 0.078-1.716 0.317-2.418 0.718-0.696 0.394-1.295 0.9-1.797 1.519-0.51 0.612-0.928 1.314-1.256 2.104-0.328 0.784-0.583 1.595-0.765 2.434-0.189 0.839-0.305 1.679-0.347 2.519-0.042 0.84-0.032 1.629 0.031 2.365v0c0.011 0.126 0.022 0.256 0.033 0.389 0.011 0.126 0.032 0.252 0.062 0.376zM93.353-16.344v0c0.097 1.136 0.001 2.164-0.289 3.086-0.29 0.915-0.725 1.738-1.305 2.469-0.574 0.725-1.256 1.355-2.046 1.891-0.791 0.536-1.648 0.99-2.574 1.364-0.918 0.379-1.873 0.675-2.864 0.887-0.986 0.211-1.95 0.357-2.894 0.438v0c-1.202 0.103-2.395 0.121-3.578 0.054-1.183-0.066-2.359-0.237-3.526-0.511v0c0.263 1.041 0.628 2.024 1.094 2.947 0.466 0.917 1.052 1.703 1.757 2.359 0.699 0.663 1.534 1.16 2.506 1.492 0.972 0.339 2.099 0.453 3.382 0.344v0c0.844-0.072 1.64-0.27 2.388-0.595 0.749-0.318 1.422-0.737 2.02-1.257 0.605-0.52 1.122-1.12 1.553-1.798 0.437-0.686 0.771-1.434 1.003-2.244v0l3.618 0.996c-0.416 1.314-1.047 2.468-1.893 3.464-0.838 1.002-1.812 1.851-2.924 2.548-1.111 0.704-2.305 1.254-3.582 1.65-1.284 0.397-2.567 0.651-3.849 0.761v0c-2.112 0.18-4.096-0.008-5.95-0.566-1.848-0.558-3.477-1.423-4.888-2.594-1.405-1.171-2.551-2.612-3.441-4.323-0.889-1.717-1.424-3.632-1.604-5.744v0c-0.18-2.112 0.022-4.087 0.608-5.924 0.585-1.843 1.471-3.461 2.657-4.853 1.192-1.393 2.652-2.521 4.378-3.385 1.733-0.864 3.655-1.386 5.768-1.566v0c1.03-0.088 2.085-0.104 3.167-0.05 1.088 0.048 2.15 0.184 3.186 0.411 1.03 0.227 2.014 0.551 2.954 0.972 0.939 0.422 1.772 0.966 2.498 1.633 0.727 0.674 1.327 1.476 1.801 2.406 0.474 0.923 0.763 2.002 0.869 3.238zM123.01-7.967v0c0.059 1.219-0.064 2.309-0.371 3.272-0.307 0.963-0.746 1.808-1.318 2.537-0.579 0.729-1.272 1.35-2.082 1.864-0.809 0.513-1.686 0.937-2.631 1.27-0.938 0.339-1.927 0.598-2.966 0.775-1.039 0.177-2.072 0.291-3.097 0.341v0c-1.378 0.067-2.601 0.04-3.668-0.081-1.068-0.128-2.094-0.365-3.078-0.711-0.978-0.346-1.962-0.809-2.951-1.388-0.983-0.58-2.082-1.29-3.298-2.132v0l4.555-4.107c0.473 0.798 1.082 1.512 1.827 2.144 0.745 0.631 1.515 1.171 2.311 1.619 0.796 0.442 1.559 0.772 2.291 0.99 0.738 0.224 1.331 0.326 1.777 0.303v0c0.366-0.018 0.782-0.051 1.247-0.1 0.465-0.043 0.939-0.113 1.421-0.21 0.476-0.097 0.943-0.23 1.403-0.399 0.459-0.163 0.863-0.379 1.209-0.649 0.348-0.264 0.622-0.591 0.824-0.981 0.195-0.383 0.279-0.841 0.253-1.374v0c-0.027-0.546-0.19-1.015-0.489-1.408-0.3-0.399-0.683-0.738-1.151-1.015-0.461-0.285-0.986-0.519-1.576-0.705-0.589-0.178-1.181-0.333-1.775-0.464-0.594-0.131-1.167-0.243-1.718-0.336-0.552-0.093-1.03-0.187-1.436-0.281v0c-0.749-0.17-1.539-0.346-2.368-0.525-0.823-0.18-1.644-0.39-2.464-0.631-0.813-0.241-1.595-0.536-2.346-0.887-0.751-0.351-1.416-0.779-1.994-1.284-0.579-0.512-1.053-1.127-1.422-1.843-0.362-0.71-0.566-1.554-0.614-2.533v0c-0.088-1.798 0.195-3.32 0.849-4.567 0.66-1.247 1.558-2.265 2.694-3.055 1.13-0.789 2.436-1.37 3.92-1.743 1.477-0.379 2.984-0.606 4.522-0.681v0c1.059-0.052 2.179 0.001 3.362 0.157 1.183 0.163 2.337 0.43 3.463 0.802 1.133 0.372 2.193 0.838 3.182 1.397 0.995 0.566 1.832 1.226 2.509 1.98v0l-4.554 4.127c-0.4-0.942-0.899-1.745-1.499-2.41-0.606-0.658-1.253-1.194-1.941-1.608-0.687-0.407-1.386-0.697-2.095-0.869-0.703-0.179-1.354-0.254-1.953-0.225v0c-0.573 0.028-1.221 0.086-1.944 0.175-0.717 0.082-1.386 0.248-2.008 0.498-0.628 0.258-1.151 0.627-1.568 1.108-0.417 0.481-0.606 1.121-0.567 1.92v0c0.028 0.579 0.185 1.066 0.472 1.459 0.28 0.4 0.643 0.736 1.09 1.008 0.447 0.279 0.956 0.504 1.525 0.676 0.562 0.173 1.137 0.322 1.723 0.447 0.58 0.125 1.146 0.231 1.698 0.318 0.552 0.087 1.047 0.183 1.486 0.288v0c0.749 0.17 1.542 0.345 2.378 0.525 0.836 0.173 1.664 0.383 2.484 0.629 0.813 0.241 1.601 0.529 2.365 0.866 0.771 0.343 1.449 0.774 2.035 1.293 0.586 0.519 1.067 1.136 1.442 1.852 0.368 0.71 0.577 1.564 0.625 2.562zM151.922-8.368v0c0.017 1.22-0.145 2.306-0.485 3.257-0.34 0.952-0.809 1.781-1.405 2.49-0.604 0.708-1.319 1.305-2.145 1.79-0.827 0.485-1.718 0.877-2.674 1.177-0.949 0.307-1.946 0.531-2.991 0.672-1.045 0.141-2.08 0.219-3.107 0.233v0c-1.38 0.019-2.601-0.05-3.664-0.209-1.062-0.165-2.08-0.438-3.051-0.817-0.965-0.38-1.932-0.876-2.901-1.49-0.962-0.613-2.036-1.362-3.222-2.245v0l4.696-3.946c0.445 0.814 1.028 1.549 1.75 2.206 0.723 0.657 1.474 1.223 2.254 1.698 0.78 0.469 1.532 0.825 2.255 1.069 0.73 0.25 1.319 0.372 1.766 0.365v0c0.367-0.005 0.783-0.024 1.249-0.057 0.466-0.026 0.942-0.08 1.428-0.16 0.479-0.08 0.951-0.197 1.415-0.35 0.465-0.146 0.875-0.349 1.232-0.607 0.357-0.252 0.642-0.569 0.857-0.952 0.208-0.376 0.308-0.831 0.301-1.364v0c-0.008-0.547-0.154-1.021-0.44-1.424-0.286-0.409-0.657-0.761-1.115-1.055-0.451-0.3-0.968-0.553-1.551-0.758-0.583-0.199-1.169-0.374-1.757-0.526-0.589-0.152-1.157-0.284-1.706-0.396-0.548-0.112-1.023-0.222-1.425-0.33v0c-0.743-0.196-1.526-0.399-2.348-0.608-0.816-0.209-1.63-0.447-2.441-0.716-0.804-0.269-1.575-0.591-2.313-0.968-0.739-0.376-1.388-0.827-1.949-1.352-0.561-0.532-1.013-1.163-1.357-1.892-0.337-0.722-0.512-1.573-0.525-2.553v0c-0.025-1.8 0.311-3.311 1.006-4.534 0.703-1.223 1.636-2.21 2.799-2.959 1.156-0.75 2.482-1.285 3.978-1.606 1.489-0.327 3.003-0.502 4.544-0.523v0c1.06-0.015 2.178 0.076 3.354 0.273 1.176 0.204 2.321 0.511 3.433 0.922 1.119 0.411 2.163 0.913 3.131 1.507 0.975 0.6 1.788 1.289 2.439 2.066v0l-4.695 3.966c-0.367-0.955-0.838-1.775-1.414-2.461-0.583-0.679-1.211-1.237-1.884-1.674-0.673-0.431-1.361-0.744-2.063-0.941-0.696-0.204-1.344-0.301-1.944-0.293v0c-0.573 0.008-1.223 0.044-1.949 0.107-0.719 0.057-1.394 0.199-2.024 0.428-0.637 0.236-1.172 0.586-1.606 1.053-0.434 0.466-0.645 1.099-0.633 1.899v0c0.008 0.58 0.148 1.071 0.42 1.474 0.266 0.41 0.617 0.758 1.055 1.046 0.437 0.294 0.938 0.537 1.5 0.729 0.556 0.192 1.125 0.361 1.707 0.506 0.575 0.145 1.137 0.271 1.686 0.376 0.548 0.106 1.04 0.219 1.475 0.34v0c0.743 0.196 1.529 0.399 2.358 0.607 0.83 0.202 1.65 0.44 2.461 0.716 0.804 0.269 1.582 0.585 2.333 0.947 0.759 0.369 1.422 0.824 1.989 1.363 0.568 0.539 1.026 1.172 1.377 1.901 0.343 0.722 0.522 1.583 0.536 2.583zM180.83-7.765v0c-0.025 1.22-0.225 2.299-0.598 3.238-0.373 0.939-0.87 1.752-1.491 2.44-0.628 0.687-1.363 1.259-2.206 1.714-0.843 0.456-1.747 0.817-2.713 1.084-0.959 0.273-1.963 0.463-3.012 0.567-1.049 0.105-2.087 0.147-3.114 0.125v0c-1.38-0.029-2.598-0.141-3.654-0.336-1.056-0.202-2.063-0.51-3.021-0.923-0.952-0.413-1.901-0.943-2.848-1.589-0.94-0.646-1.987-1.432-3.141-2.356v0l4.83-3.781c0.416 0.829 0.974 1.584 1.673 2.266 0.699 0.681 1.43 1.273 2.193 1.776 0.763 0.496 1.502 0.878 2.217 1.146 0.721 0.275 1.305 0.417 1.751 0.427v0c0.367 0.008 0.783 0.003 1.251-0.014 0.467-0.01 0.945-0.047 1.433-0.11 0.481-0.063 0.957-0.163 1.426-0.301 0.469-0.13 0.887-0.318 1.252-0.564 0.365-0.239 0.662-0.546 0.89-0.922 0.221-0.369 0.337-0.82 0.348-1.353v0c0.011-0.547-0.119-1.026-0.39-1.438-0.271-0.419-0.63-0.783-1.078-1.093-0.44-0.316-0.948-0.587-1.523-0.812-0.576-0.219-1.155-0.414-1.738-0.586-0.583-0.172-1.147-0.324-1.691-0.455-0.544-0.131-1.015-0.258-1.413-0.38v0c-0.736-0.222-1.511-0.452-2.326-0.688-0.809-0.237-1.613-0.504-2.414-0.801-0.794-0.297-1.554-0.646-2.279-1.047-0.725-0.402-1.359-0.875-1.9-1.42-0.542-0.551-0.972-1.197-1.29-1.937-0.311-0.733-0.457-1.59-0.437-2.57v0c0.037-1.8 0.425-3.299 1.164-4.497 0.745-1.198 1.712-2.151 2.9-2.86 1.182-0.709 2.525-1.198 4.031-1.467 1.499-0.276 3.019-0.397 4.559-0.365v0c1.06 0.022 2.174 0.152 3.343 0.39 1.169 0.244 2.302 0.591 3.399 1.041 1.104 0.45 2.13 0.988 3.077 1.614 0.954 0.633 1.742 1.35 2.366 2.15v0l-4.831 3.8c-0.333-0.967-0.776-1.803-1.328-2.508-0.559-0.698-1.167-1.278-1.824-1.738-0.657-0.454-1.334-0.791-2.029-1.013-0.689-0.228-1.333-0.348-1.933-0.36v0c-0.573-0.012-1.224 0.001-1.951 0.039-0.721 0.032-1.4 0.151-2.038 0.358-0.645 0.213-1.192 0.545-1.641 0.996-0.449 0.451-0.683 1.076-0.7 1.876v0c-0.012 0.58 0.111 1.076 0.37 1.488 0.251 0.419 0.591 0.779 1.017 1.081 0.427 0.309 0.918 0.569 1.474 0.781 0.549 0.211 1.112 0.4 1.689 0.565 0.57 0.165 1.127 0.31 1.671 0.435 0.544 0.125 1.032 0.255 1.462 0.391v0c0.736 0.222 1.514 0.452 2.337 0.689 0.822 0.23 1.633 0.497 2.433 0.8 0.794 0.297 1.56 0.639 2.3 1.029 0.745 0.396 1.392 0.873 1.94 1.43 0.548 0.558 0.985 1.207 1.31 1.948 0.318 0.733 0.467 1.6 0.446 2.6zM197.1-22.637l-1.308 24.576-8.159-0.434 1.308-24.576-5.053-0.269 0.172-3.225 5.053 0.269 0.544-10.226 8.158 0.434-0.544 10.226 8.428 0.448-0.171 3.226zM236.802-8.855v0c-0.122 1.442-0.429 2.777-0.921 4.007-0.493 1.236-1.123 2.36-1.891 3.372-0.769 1.019-1.671 1.916-2.706 2.692-1.036 0.775-2.15 1.41-3.343 1.905-1.193 0.495-2.457 0.846-3.792 1.054-1.329 0.209-2.681 0.255-4.056 0.138v0c-1.382-0.117-2.707-0.39-3.976-0.818-1.268-0.428-2.449-0.987-3.541-1.675-1.099-0.688-2.091-1.502-2.975-2.439-0.891-0.938-1.629-1.974-2.216-3.108-0.594-1.127-1.029-2.345-1.306-3.653-0.271-1.301-0.346-2.665-0.226-4.094v0c0.12-1.422 0.424-2.754 0.91-3.997 0.493-1.243 1.127-2.37 1.902-3.382 0.768-1.012 1.67-1.906 2.706-2.681 1.029-0.776 2.144-1.414 3.343-1.915 1.193-0.495 2.45-0.846 3.773-1.056 1.322-0.209 2.674-0.255 4.056-0.138v0c1.375 0.116 2.7 0.389 3.975 0.818 1.282 0.43 2.469 0.988 3.562 1.676 1.092 0.695 2.083 1.511 2.974 2.45 0.891 0.938 1.63 1.971 2.216 3.098 0.587 1.127 1.019 2.344 1.297 3.652 0.277 1.308 0.356 2.673 0.235 4.094zM228.542-9.554v0c0.065-0.771 0.091-1.585 0.076-2.442-0.014-0.864-0.092-1.721-0.234-2.569-0.136-0.841-0.352-1.656-0.646-2.443-0.301-0.795-0.69-1.497-1.167-2.106-0.483-0.616-1.079-1.128-1.787-1.536-0.702-0.401-1.541-0.642-2.518-0.725v0c-0.93-0.079-1.772 0.027-2.525 0.318-0.747 0.291-1.415 0.707-2.003 1.246-0.588 0.539-1.093 1.175-1.516 1.909-0.424 0.74-0.784 1.513-1.079 2.317-0.289 0.805-0.519 1.625-0.69 2.46-0.164 0.829-0.277 1.612-0.339 2.35v0c-0.062 0.737-0.083 1.532-0.062 2.384 0.029 0.845 0.118 1.693 0.267 2.541 0.155 0.856 0.38 1.678 0.674 2.466 0.294 0.794 0.685 1.506 1.174 2.136 0.489 0.63 1.077 1.152 1.765 1.565 0.694 0.413 1.506 0.659 2.436 0.738v0c0.957 0.081 1.818-0.02 2.585-0.303 0.767-0.283 1.443-0.691 2.03-1.223 0.58-0.526 1.078-1.153 1.494-1.881 0.416-0.721 0.768-1.487 1.058-2.299 0.29-0.818 0.514-1.646 0.672-2.482 0.158-0.843 0.27-1.65 0.335-2.421zM266.777-16.678v0l-5.465 6.98c-0.114-0.659-0.275-1.407-0.482-2.245-0.208-0.831-0.491-1.621-0.849-2.37-0.365-0.75-0.83-1.397-1.396-1.943-0.565-0.546-1.254-0.868-2.068-0.967v0c-0.748-0.091-1.42 0.022-2.016 0.338-0.596 0.317-1.123 0.76-1.582 1.329-0.458 0.562-0.857 1.215-1.196 1.959-0.346 0.744-0.633 1.501-0.861 2.273-0.236 0.777-0.421 1.524-0.555 2.239-0.135 0.722-0.235 1.348-0.299 1.878v0l-1.688 13.847-8.11-0.988 3.368-27.636 3.107 0.379 2.491 6.842c0.577-0.984 1.206-1.875 1.887-2.672 0.676-0.804 1.429-1.475 2.26-2.011 0.824-0.538 1.731-0.924 2.72-1.16 0.996-0.235 2.089-0.279 3.28-0.134v0c0.622 0.076 1.31 0.213 2.065 0.413 0.756 0.193 1.485 0.46 2.19 0.801 0.705 0.334 1.341 0.738 1.907 1.21 0.574 0.473 1.004 1.019 1.292 1.638zM274.53-3.082v0c0.946 0.378 1.903 0.707 2.871 0.986 0.961 0.286 1.942 0.507 2.943 0.664v0c1.047 0.164 2.035 0.215 2.962 0.151 0.927-0.057 1.756-0.268 2.488-0.632 0.732-0.364 1.35-0.905 1.854-1.622 0.504-0.717 0.847-1.655 1.029-2.815v0c0.147-0.935 0.153-1.812 0.017-2.629-0.128-0.816-0.399-1.544-0.811-2.182-0.414-0.632-0.962-1.16-1.645-1.584-0.683-0.424-1.508-0.712-2.476-0.864v0c-0.902-0.142-1.742-0.101-2.519 0.121-0.77 0.217-1.472 0.565-2.108 1.046-0.641 0.473-1.215 1.055-1.721 1.745-0.505 0.683-0.947 1.41-1.324 2.181-0.384 0.77-0.696 1.558-0.937 2.363-0.241 0.806-0.419 1.574-0.534 2.305v0c-0.02 0.125-0.04 0.254-0.06 0.386-0.02 0.125-0.029 0.252-0.029 0.38zM295.208-5.396v0c-0.177 1.126-0.515 2.102-1.016 2.928-0.5 0.819-1.118 1.515-1.856 2.087-0.73 0.567-1.543 1.017-2.438 1.349-0.896 0.332-1.837 0.569-2.825 0.711-0.982 0.15-1.98 0.209-2.993 0.178-1.008-0.03-1.979-0.118-2.915-0.265v0c-1.192-0.187-2.355-0.454-3.488-0.8-1.133-0.346-2.234-0.792-3.302-1.338v0c0.007 1.074 0.127 2.115 0.36 3.124 0.234 1.002 0.616 1.905 1.144 2.71 0.521 0.81 1.213 1.493 2.078 2.046 0.864 0.561 1.931 0.941 3.202 1.14v0c0.836 0.131 1.657 0.128 2.461-0.008 0.803-0.13 1.557-0.377 2.262-0.739 0.711-0.361 1.357-0.82 1.937-1.376 0.588-0.562 1.09-1.209 1.508-1.94v0l3.276 1.83c-0.718 1.176-1.605 2.147-2.663 2.912-1.052 0.773-2.201 1.365-3.447 1.777-1.247 0.419-2.538 0.668-3.873 0.749-1.342 0.08-2.648 0.02-3.919-0.179v0c-2.094-0.328-3.975-0.985-5.644-1.968-1.661-0.983-3.037-2.211-4.129-3.684-1.085-1.473-1.855-3.145-2.31-5.019-0.454-1.88-0.517-3.867-0.189-5.961v0c0.328-2.094 0.996-3.964 2.003-5.608 1.008-1.65 2.254-3.01 3.738-4.08 1.49-1.069 3.176-1.816 5.058-2.243 1.889-0.426 3.88-0.474 5.975-0.146v0c1.021 0.16 2.05 0.396 3.088 0.707 1.045 0.306 2.044 0.692 2.997 1.158 0.946 0.466 1.825 1.015 2.636 1.649 0.812 0.633 1.49 1.361 2.037 2.181 0.545 0.828 0.937 1.75 1.175 2.766 0.24 1.009 0.264 2.127 0.072 3.352z" opacity="1" transform="matrix(1,0,0,1,0,0)" fill="#000000" class="wordmark-text-0" data-fill-palette-color="primary" id="text-0"></path></svg></g></svg></g></svg></g></svg></g><g transform="matrix(1,0,0,1,118.76014233446274,0)"><svg viewBox="0 0 157.9997153310745 105.64450393343667" height="105.64450393343667" width="157.9997153310745"><g><svg xmlns="http://www.w3.org/2000/svg" xmlns:xlink="http://www.w3.org/1999/xlink" version="1.1" x="0" y="0" viewBox="0.0005970206521597743 16.566999999999993 100.00040297934784 66.86399999999999" enable-background="new 0 0 100 100" xml:space="preserve" width="157.9997153310745" height="105.64450393343667" class="icon-icon-0" data-fill-palette-color="accent" id="icon-0"><g fill="#412e27" data-fill-palette-color="accent"><g fill="#412e27" data-fill-palette-color="accent"><path d="M99.07 78.93v-3.455h-0.647V74.73c0 0 1.019 0.164 1.019-2.26 0-2.419-0.605-5.07-5.828-7.376-0.037-0.017-0.063-0.036-0.098-0.055h0.598v-2.215h-1.081l-1.175-26.333h1.281v-1.313h1.842v-11.25h-4.25v2.774h-2.629v-2.774h-6.899v2.774h-2.63v-2.774h-4.25v11.252h1.842v1.313h1.281l-1.174 26.333h-1.082v2.215h0.596c-0.035 0.019-0.063 0.038-0.1 0.056-5.222 2.305-5.824 4.957-5.824 7.375 0 2.424 1.018 2.26 1.018 2.26v0.744H70.23v3.455h-0.929v4.5h30.7v-4.5H99.07V78.93z" fill="#000000" data-fill-palette-color="accent"></path><path d="M63.671 79.895v-2.713h-0.509v-0.588c0 0 0.8 0.131 0.8-1.773 0-1.899-0.478-3.985-4.578-5.797-0.2-0.088-0.379-0.19-0.543-0.303v-1.479h-0.965c-2.442-6.769-2.272-12.119-2.159-13.603h0.838v-1.506H54.76c2.348-0.957 4.006-3.254 4.006-5.946 0-3.548-2.877-6.424-6.425-6.424s-6.424 2.876-6.424 6.424c0 2.691 1.657 4.989 4.005 5.946H48.13v1.506h0.835c0.114 1.482 0.283 6.834-2.159 13.603h-0.965v1.479c-0.164 0.11-0.342 0.215-0.545 0.303-4.102 1.812-4.576 3.896-4.576 5.797 0 1.904 0.8 1.773 0.8 1.773v0.588h-0.509v2.713h-0.73v3.535h24.122v-3.535H63.671z" fill="#000000" data-fill-palette-color="accent"></path><path d="M34.323 78.93v-3.455h-0.648V74.73c0 0 1.018 0.164 1.018-2.26 0-2.419-0.605-5.07-5.828-7.376-0.256-0.112-0.482-0.243-0.689-0.385v-1.586c1.237-0.394 2.486-0.86 3.743-1.476 0 0 2.772-13.446-2.825-27.848-2.283-5.875-5.223-8.978-8.139-10.354-1.057-1.504-4.602-6.31-7.154-6.878 0 0 0.81 3.253 1.026 6.236-2.066 0.504-3.781 1.664-4.763 2.912-3.057 3.883-5.442 5.885-8.675 7.254-3.232 1.372-0.127 8.272 2.282 8.104 1.615-0.112 3.666-1.746 6.454-1.251 2.787 0.494 5.006-0.578 5.006-0.578l0.56 1.453c0 0-7.939 8.778-8.088 21.521 0 0 1.53 0.686 4.027 1.301v1.188c-0.209 0.141-0.436 0.271-0.693 0.387-5.222 2.305-5.825 4.957-5.825 7.377 0 2.422 1.017 2.258 1.017 2.258v0.744H5.481v3.455H4.552v4.5h30.7v-4.5H34.323z" fill="#000000" data-fill-palette-color="accent"></path></g></g></svg></g></svg></g><g></g></svg></g><defs></defs></svg><rect width="395.52" height="192.6496585801688" fill="none" stroke="none" visibility="hidden"></rect></g></svg></g></svg>