<svg xmlns="http://www.w3.org/2000/svg" version="1.1" xmlns:xlink="http://www.w3.org/1999/xlink" xmlns:svgjs="http://svgjs.dev/svgjs" width="2000" height="1500" viewBox="0 0 2000 1500"><rect width="2000" height="1500" fill="#975c12"></rect><g transform="matrix(0.75,0,0,0.75,250,0.0006512266614890905)"><svg viewBox="0 0 280 280" data-background-color="#975c12" preserveAspectRatio="xMidYMid meet" height="2000" width="2000" xmlns="http://www.w3.org/2000/svg" xmlns:xlink="http://www.w3.org/1999/xlink"><g id="tight-bounds" transform="matrix(1,0,0,1,0,-0.00012156231014159857)"><svg viewBox="0 0 280 280" height="280" width="280"><g><svg viewBox="0 0 280 280" height="280" width="280"><g><svg viewBox="0 0 280 280" height="280" width="280"><g id="textblocktransform"><svg viewBox="0 0 280 280" height="280" width="280" id="textblock"><g><svg viewBox="0 0 280 280" height="280" width="280"><g transform="matrix(1,0,0,1,110.301515190165,90.50252531694167)"><svg viewBox="0 0 59.396969619669996 98.99494936611666" height="98.99494936611666" width="59.396969619669996"><g id="icon-0"><svg xmlns="http://www.w3.org/2000/svg" xmlns:xlink="http://www.w3.org/1999/xlink" version="1.1" x="0" y="0" viewBox="12 0 36 60" style="enable-background:new 0 0 60 60;" xml:space="preserve" height="98.99494936611666" width="59.396969619669996" class="icon-xg-0" data-fill-palette-color="accent" id="xg-0"><g fill="#b79f49" data-fill-palette-color="accent"><g fill="#b79f49" data-fill-palette-color="accent"><path d="M47 48h-2v-4c0-0.242-0.088-0.477-0.248-0.66-0.064-0.074-6.344-7.407-6.717-18.34H40c0.552 0 1-0.448 1-1v-8c0-0.552-0.448-1-1-1h-2.057c0.639-2.731-0.098-4.616-0.9-5.765-1.255-1.796-3.469-2.946-6.042-3.185V4h2c0.552 0 1-0.448 1-1s-0.448-1-1-1h-2V1c0-0.552-0.448-1-1-1s-1 0.448-1 1v1h-2c-0.552 0-1 0.448-1 1s0.448 1 1 1h2V6.05c-2.573 0.238-4.788 1.388-6.042 3.185-0.803 1.149-1.539 3.033-0.901 5.765H20c-0.552 0-1 0.448-1 1v8c0 0.552 0.448 1 1 1h2.959c-0.428 10.869-7.592 18.218-7.667 18.292C15.105 43.481 15 43.735 15 44v4h-2c-0.552 0-1 0.449-1 1v10c0 0.553 0.448 1 1 1h34c0.552 0 1-0.447 1-1V49C48 48.447 47.552 48 47 48zM21 23v-6h2.4c0.327 0 0.633-0.16 0.82-0.427 0.187-0.268 0.231-0.61 0.119-0.917-0.771-2.104-0.682-3.929 0.258-5.275C25.622 8.913 27.693 8 30 8c2.307 0 4.377 0.912 5.402 2.38 0.94 1.347 1.031 3.171 0.259 5.275-0.112 0.307-0.068 0.649 0.118 0.917C35.967 16.84 36.273 17 36.6 17H39v6H21zM17 44.399c1.45-1.569 7.588-8.847 7.964-19.4h11.068C36.361 35.543 41.749 42.816 43 44.361V48H17V44.399zM46 58H14v-8h32V58z" fill="#b79f49" data-fill-palette-color="accent"></path></g></g></svg></g></svg></g><g id="text-0"><path d="M29.975 99.132v0c-0.981 2.973-2.512 4.922-4.595 5.847-2.087 0.917-4.604 0.889-7.55-0.082v0l-3.228-1.065c-2.96-0.976-4.995-2.454-6.106-4.432-1.115-1.987-1.184-4.461-0.207-7.421v0c0.29-0.879 0.635-1.654 1.035-2.324 0.405-0.662 0.831-1.238 1.28-1.728 0.455-0.488 0.889-0.882 1.303-1.182v0l3.085 0.684c-0.724 0.499-1.415 1.149-2.073 1.95-0.656 0.794-1.187 1.805-1.591 3.033v0c-0.654 1.984-0.592 3.642 0.187 4.974 0.779 1.332 2.215 2.343 4.309 3.033v0l3.054 1.007c2.055 0.678 3.795 0.714 5.22 0.11 1.425-0.605 2.465-1.899 3.119-3.884v0c0.42-1.273 0.605-2.43 0.554-3.471-0.049-1.048-0.209-2.018-0.481-2.911v0l2.939 1.324c0.213 0.765 0.336 1.709 0.367 2.83 0.029 1.128-0.178 2.363-0.621 3.708z" fill="#e8ede9" data-fill-palette-color="primary"></path><path d="M49.447 63.33l-2.027 3.004-11.255-7.593c-0.976-0.658-1.906-1.093-2.79-1.303-0.884-0.211-1.724-0.145-2.52 0.195-0.793 0.335-1.539 1.022-2.24 2.06v0c-0.643 0.953-1.016 1.896-1.12 2.828-0.113 0.934-0.006 1.822 0.32 2.666 0.324 0.834 0.816 1.601 1.476 2.301v0l-2.583-0.77 0.525-0.778c-0.687-0.734-1.201-1.578-1.543-2.531-0.34-0.944-0.429-1.968-0.266-3.074 0.157-1.109 0.641-2.264 1.451-3.466v0c0.967-1.433 2.023-2.408 3.168-2.924 1.135-0.515 2.352-0.633 3.651-0.356 1.295 0.283 2.685 0.925 4.168 1.926v0zM41.277 75.44l-2.027 3.004-24.565-16.574 2.015-2.987 5.898 3.979 5.125 3.593 0.319 0.055z" fill="#e8ede9" data-fill-palette-color="primary"></path><path d="M69.141 45.987v0c-2.591 2.078-5.053 3.01-7.388 2.798-2.325-0.212-4.434-1.499-6.329-3.862v0l-2.433-3.034c-1.924-2.4-2.796-4.737-2.613-7.011 0.182-2.275 1.446-4.353 3.793-6.235v0c1.582-1.269 3.138-2.037 4.668-2.304 1.529-0.258 2.996-0.061 4.401 0.592 1.401 0.648 2.703 1.723 3.908 3.225v0l0.504 0.629c0.298 0.372 0.58 0.756 0.847 1.153 0.271 0.393 0.528 0.789 0.769 1.189v0l-2.596 2.082c-0.426-0.574-0.836-1.113-1.231-1.617-0.395-0.503-0.761-0.965-1.097-1.384v0c-0.83-1.035-1.697-1.779-2.601-2.232-0.909-0.448-1.844-0.597-2.805-0.446-0.955 0.147-1.929 0.618-2.922 1.414v0c-1.465 1.175-2.224 2.481-2.275 3.919-0.051 1.437 0.557 2.946 1.826 4.528v0l1.297 1.617 0.297 0.337 1.303 1.625c0.571 0.711 1.19 1.266 1.857 1.663 0.663 0.402 1.386 0.629 2.169 0.682 0.778 0.056 1.599-0.083 2.464-0.419 0.866-0.345 1.774-0.899 2.725-1.662v0c1.11-0.89 2.022-1.862 2.738-2.916 0.721-1.058 1.301-2.173 1.74-3.345v0l1.698 2.656c-0.376 1.087-0.948 2.174-1.716 3.26-0.772 1.082-1.772 2.114-2.998 3.098zM68.671 33.606l-12.104 9.707-1.705-2.126 12.104-9.707z" fill="#e8ede9" data-fill-palette-color="primary"></path><path d="M96.446 30.453v0c-1.621 0.674-3.111 1.087-4.471 1.239-1.359 0.152-2.523 0.19-3.49 0.114v0l-1.6-2.972c1.222 0.104 2.518 0.1 3.886-0.013 1.366-0.118 2.812-0.495 4.339-1.129v0c1.552-0.645 2.618-1.379 3.197-2.202 0.579-0.823 0.666-1.721 0.262-2.696v0l-0.094-0.226c-0.264-0.635-0.63-1.098-1.098-1.39-0.468-0.292-1.153-0.434-2.057-0.427-0.897 0.004-2.123 0.142-3.676 0.411v0c-1.845 0.332-3.361 0.45-4.55 0.355-1.189-0.095-2.145-0.427-2.869-0.996-0.729-0.567-1.317-1.387-1.764-2.462v0l-0.078-0.188c-0.734-1.766-0.676-3.356 0.173-4.77 0.847-1.421 2.502-2.643 4.965-3.667v0c1.584-0.658 3.031-1.05 4.342-1.175 1.311-0.125 2.429-0.122 3.354 0.01v0l1.486 2.698c-1.109-0.151-2.314-0.158-3.613-0.023-1.297 0.141-2.669 0.512-4.114 1.113v0c-1.049 0.436-1.853 0.896-2.412 1.378-0.558 0.483-0.901 0.979-1.028 1.489-0.127 0.51-0.076 1.041 0.154 1.594v0l0.07 0.17c0.251 0.603 0.608 1.055 1.073 1.356 0.464 0.301 1.137 0.449 2.019 0.443 0.876-0.003 2.043-0.138 3.502-0.405v0c1.865-0.37 3.405-0.523 4.617-0.46 1.21 0.057 2.189 0.365 2.938 0.923 0.745 0.552 1.359 1.407 1.839 2.563v0l0.145 0.349c0.789 1.898 0.721 3.606-0.202 5.125-0.92 1.51-2.668 2.8-5.245 3.871z" fill="#e8ede9" data-fill-palette-color="primary"></path><path d="M126.801 22.79v0c-1.742 0.219-3.288 0.222-4.639 0.008-1.351-0.214-2.482-0.487-3.395-0.818v0l-0.753-3.29c1.151 0.424 2.401 0.764 3.75 1.02 1.348 0.249 2.843 0.27 4.483 0.064v0c1.668-0.21 2.89-0.635 3.667-1.275 0.777-0.64 1.099-1.483 0.968-2.529v0l-0.031-0.243c-0.086-0.682-0.315-1.226-0.689-1.631-0.373-0.406-0.997-0.725-1.869-0.959-0.866-0.234-2.084-0.427-3.654-0.579v0c-1.866-0.17-3.36-0.459-4.481-0.866-1.121-0.408-1.955-0.982-2.501-1.723-0.553-0.74-0.902-1.687-1.047-2.841v0l-0.025-0.203c-0.239-1.897 0.239-3.415 1.433-4.553 1.193-1.145 3.114-1.884 5.761-2.216v0c1.702-0.214 3.201-0.207 4.498 0.02 1.298 0.228 2.374 0.528 3.231 0.9v0l0.716 2.997c-1.029-0.44-2.188-0.767-3.477-0.983-1.288-0.208-2.709-0.215-4.262-0.019v0c-1.128 0.142-2.025 0.371-2.691 0.688-0.667 0.317-1.129 0.704-1.387 1.163-0.258 0.458-0.349 0.984-0.275 1.577v0l0.023 0.183c0.082 0.648 0.306 1.179 0.674 1.592 0.368 0.413 0.977 0.734 1.829 0.963 0.845 0.23 2.006 0.409 3.483 0.539v0c1.897 0.139 3.421 0.399 4.574 0.783 1.152 0.376 2.014 0.933 2.587 1.67 0.572 0.731 0.936 1.717 1.093 2.96v0l0.047 0.374c0.257 2.039-0.262 3.668-1.556 4.888-1.288 1.211-3.316 1.991-6.085 2.339z" fill="#e8ede9" data-fill-palette-color="primary"></path><path d="M158.108 23.453v0c-1.738-0.25-3.23-0.658-4.475-1.222-1.246-0.565-2.265-1.127-3.057-1.688v0l0.146-3.372c0.997 0.714 2.112 1.374 3.345 1.977 1.234 0.597 2.669 1.014 4.306 1.25v0c1.664 0.24 2.955 0.154 3.874-0.257 0.919-0.411 1.453-1.138 1.604-2.182v0l0.035-0.243c0.098-0.68 0.021-1.266-0.232-1.755-0.253-0.49-0.769-0.963-1.549-1.42-0.773-0.455-1.896-0.964-3.369-1.527v0c-1.755-0.658-3.119-1.333-4.091-2.023-0.973-0.69-1.625-1.465-1.955-2.324-0.337-0.86-0.422-1.866-0.256-3.017v0l0.029-0.202c0.273-1.893 1.136-3.229 2.589-4.01 1.454-0.787 3.501-0.991 6.142-0.611v0c1.697 0.245 3.141 0.649 4.332 1.212 1.191 0.563 2.15 1.138 2.876 1.725v0l-0.103 3.079c-0.876-0.697-1.907-1.32-3.093-1.869-1.187-0.542-2.555-0.925-4.104-1.149v0c-1.125-0.162-2.051-0.179-2.778-0.049-0.727 0.129-1.275 0.38-1.645 0.753-0.37 0.373-0.598 0.856-0.683 1.448v0l-0.026 0.182c-0.093 0.647-0.017 1.218 0.227 1.714 0.245 0.496 0.748 0.967 1.509 1.414 0.754 0.446 1.826 0.927 3.216 1.443v0c1.792 0.636 3.193 1.292 4.203 1.967 1.011 0.668 1.694 1.434 2.051 2.296 0.358 0.856 0.448 1.904 0.269 3.143v0l-0.054 0.374c-0.293 2.034-1.225 3.468-2.796 4.3-1.563 0.827-3.725 1.041-6.487 0.643z" fill="#e8ede9" data-fill-palette-color="primary"></path><path d="M189.18 32.801v0c-1.548-0.673-2.691-1.449-3.43-2.326-0.741-0.872-1.119-1.871-1.133-2.998-0.012-1.133 0.288-2.402 0.898-3.806v0l5.498-12.637 3.285 1.43-5.326 12.243c-0.573 1.317-0.694 2.414-0.364 3.293 0.334 0.887 1.209 1.639 2.626 2.255v0c0.811 0.353 1.628 0.6 2.449 0.743 0.825 0.151 1.637 0.204 2.436 0.158v0l-1.551 2.72c-0.784 0.045-1.649-0.023-2.594-0.204-0.945-0.181-1.877-0.471-2.794-0.871zM201.5 17.378l-14.415-6.271 1.16-2.668 14.724 6.405zM194.58 11.584l-3.182-1.384 2.424-5.625 3.529 1.024z" fill="#e8ede9" data-fill-palette-color="primary"></path><path d="M214.505 49.034v0c-2.446-1.953-3.774-4.097-3.982-6.431-0.203-2.331 0.684-4.735 2.663-7.214v0l2.082-2.608c1.97-2.468 4.117-3.854 6.441-4.158 2.314-0.303 4.69 0.517 7.126 2.462v0c2.446 1.953 3.778 4.092 3.995 6.415 0.213 2.329-0.666 4.728-2.636 7.196v0l-2.082 2.609c-1.978 2.478-4.129 3.875-6.452 4.188-2.323 0.314-4.708-0.506-7.155-2.459zM216.346 46.729v0c1.516 1.21 3.026 1.68 4.531 1.409 1.505-0.27 2.932-1.251 4.282-2.942v0l2.324-2.912c1.342-1.681 1.973-3.279 1.895-4.796-0.074-1.522-0.869-2.888-2.384-4.098v0c-1.5-1.197-3.003-1.665-4.508-1.404-1.501 0.256-2.923 1.224-4.265 2.904v0l-2.324 2.912c-1.35 1.691-1.988 3.303-1.913 4.834 0.075 1.531 0.862 2.896 2.362 4.093z" fill="#e8ede9" data-fill-palette-color="primary"></path><path d="M246.114 62.37v0l1.787-2.306 0.552 0.697c1.78-0.695 3.444-0.883 4.991-0.562 1.542 0.324 2.875 1.267 4.001 2.83v0c0.278 0.387 0.499 0.756 0.66 1.109 0.162 0.353 0.287 0.678 0.375 0.975v0l-2.718 2.235c-0.115-0.37-0.279-0.76-0.49-1.17-0.206-0.414-0.47-0.844-0.792-1.291v0c-0.958-1.331-2.161-2.226-3.607-2.686-1.448-0.45-3.034-0.394-4.759 0.169zM235.381 70.313l-2.118-2.941 17.711-12.753 2.064 2.866-5.329 3.623-0.06 0.371z" fill="#e8ede9" data-fill-palette-color="primary"></path><path d="M250.472 100.691v0c-1.167-3.109-1.285-5.74-0.356-7.892 0.926-2.143 2.806-3.746 5.642-4.81v0l3.641-1.366c2.88-1.081 5.372-1.18 7.477-0.298 2.105 0.882 3.685 2.731 4.742 5.547v0c0.713 1.899 0.957 3.617 0.735 5.154-0.231 1.533-0.876 2.866-1.935 3.997-1.052 1.129-2.479 2.032-4.282 2.708v0l-0.755 0.283c-0.446 0.167-0.899 0.316-1.36 0.445-0.458 0.136-0.914 0.256-1.369 0.361v0l-1.169-3.115c0.679-0.226 1.318-0.448 1.92-0.666 0.601-0.218 1.154-0.422 1.657-0.611v0c1.242-0.466 2.22-1.058 2.931-1.776 0.71-0.724 1.142-1.566 1.298-2.526 0.158-0.953 0.014-2.026-0.433-3.218v0c-0.66-1.758-1.665-2.886-3.014-3.382-1.349-0.497-2.973-0.389-4.872 0.323v0l-1.94 0.728-0.414 0.177-1.949 0.732c-0.854 0.32-1.574 0.736-2.16 1.247-0.588 0.504-1.03 1.121-1.323 1.848-0.296 0.722-0.419 1.546-0.37 2.472 0.058 0.93 0.302 1.966 0.729 3.106v0c0.5 1.332 1.139 2.502 1.918 3.511 0.781 1.015 1.66 1.914 2.636 2.696v0l-3.052 0.786c-0.915-0.696-1.77-1.578-2.564-2.647-0.787-1.071-1.457-2.343-2.009-3.814zM262.383 104.103l-5.451-14.526 2.551-0.958 5.452 14.527z" fill="#e8ede9" data-fill-palette-color="primary"></path><path d="M8.079 188.147v0c-1.024-3.08-0.953-5.65 0.213-7.708 1.166-2.058 3.273-3.594 6.322-4.607v0l3.342-1.111c3.068-1.019 5.679-1.048 7.834-0.086 2.149 0.964 3.733 2.98 4.753 6.047v0c0.303 0.911 0.494 1.768 0.575 2.573 0.079 0.798 0.081 1.54 0.008 2.224-0.074 0.684-0.187 1.281-0.34 1.791v0l-3.007 1.344c0.3-0.867 0.477-1.833 0.532-2.899 0.053-1.072-0.134-2.247-0.558-3.525v0c-0.682-2.054-1.758-3.392-3.228-4.015-1.471-0.63-3.295-0.583-5.472 0.14v0l-3.167 1.053c-2.125 0.706-3.591 1.753-4.4 3.14-0.817 1.383-0.884 3.101-0.201 5.155v0c0.44 1.324 1.004 2.406 1.692 3.245 0.686 0.833 1.418 1.537 2.196 2.11v0l-3.258 0.717c-0.654-0.5-1.341-1.207-2.061-2.122-0.72-0.915-1.312-2.07-1.775-3.466z" fill="#e8ede9" data-fill-palette-color="primary"></path><path d="M31.432 229.223l-2.106-3.111 11.656-7.892c1.009-0.683 1.786-1.41 2.331-2.182 0.54-0.768 0.803-1.6 0.789-2.495-0.02-0.891-0.394-1.874-1.122-2.95v0c-0.668-0.986-1.43-1.711-2.286-2.175-0.851-0.468-1.743-0.706-2.678-0.714-0.933-0.018-1.863 0.156-2.791 0.521v0l1.743-2.179 0.544 0.803c0.975-0.381 1.985-0.551 3.031-0.511 1.04 0.044 2.061 0.355 3.062 0.935 1.005 0.585 1.927 1.498 2.765 2.738v0c1.003 1.482 1.534 2.873 1.593 4.173 0.055 1.294-0.302 2.51-1.069 3.646-0.773 1.14-1.926 2.229-3.46 3.266v0zM22.945 216.687l-2.106-3.11 25.442-17.226 2.095 3.093-6.111 4.138-5.445 3.538-0.165 0.285z" fill="#e8ede9" data-fill-palette-color="primary"></path><path d="M54.931 251.943v0c-2.691-2.149-4.192-4.429-4.506-6.839-0.317-2.405 0.503-4.833 2.461-7.284v0l2.522-3.159c1.988-2.488 4.154-3.898 6.5-4.228 2.34-0.334 4.73 0.473 7.171 2.423v0c1.643 1.312 2.771 2.714 3.383 4.204 0.611 1.481 0.746 3.008 0.404 4.582-0.343 1.564-1.137 3.124-2.382 4.682v0l-0.522 0.654c-0.306 0.383-0.627 0.758-0.964 1.125-0.342 0.363-0.685 0.711-1.031 1.045v0l-2.695-2.154c0.484-0.563 0.937-1.102 1.358-1.619 0.417-0.512 0.8-0.985 1.149-1.421v0c0.858-1.074 1.414-2.119 1.668-3.135 0.249-1.02 0.188-1.997-0.182-2.929-0.372-0.941-1.071-1.822-2.097-2.641v0c-1.521-1.215-3.014-1.684-4.479-1.409-1.461 0.27-2.848 1.227-4.161 2.869v0l-1.35 1.691-0.271 0.372-1.344 1.682c-0.59 0.739-1.012 1.491-1.266 2.256-0.253 0.764-0.321 1.547-0.202 2.346 0.124 0.804 0.456 1.605 0.995 2.402 0.539 0.797 1.304 1.59 2.292 2.38v0c1.149 0.917 2.338 1.62 3.57 2.107 1.236 0.491 2.494 0.825 3.773 1.001v0l-2.298 2.32c-1.182-0.134-2.408-0.469-3.678-1.005-1.275-0.53-2.547-1.303-3.818-2.318zM67.353 248.657l-12.578-10.046 1.765-2.21 12.578 10.047z" fill="#e8ede9" data-fill-palette-color="primary"></path><path d="M87.805 270.676v0c-1.685-0.697-3.081-1.488-4.188-2.374-1.107-0.885-1.987-1.713-2.639-2.484v0l1.01-3.349c0.817 0.979 1.77 1.925 2.857 2.839 1.079 0.918 2.41 1.704 3.995 2.36v0c1.616 0.669 2.94 0.914 3.97 0.737 1.025-0.18 1.746-0.776 2.165-1.789v0l0.098-0.236c0.273-0.66 0.344-1.268 0.213-1.823-0.131-0.555-0.528-1.161-1.192-1.818-0.663-0.657-1.662-1.457-2.995-2.4v0c-1.596-1.109-2.795-2.136-3.598-3.079-0.796-0.941-1.253-1.885-1.369-2.831-0.114-0.953 0.059-1.986 0.52-3.099v0l0.082-0.198c0.755-1.824 1.962-2.944 3.623-3.362 1.661-0.418 3.767-0.098 6.32 0.958v0c1.648 0.682 2.998 1.458 4.052 2.328 1.054 0.871 1.869 1.694 2.446 2.471v0l-0.893 3.066c-0.698-0.93-1.575-1.819-2.63-2.668-1.053-0.855-2.327-1.593-3.824-2.212v0c-1.088-0.45-2.014-0.704-2.777-0.763-0.764-0.058-1.378 0.056-1.843 0.342-0.471 0.284-0.825 0.712-1.062 1.285v0l-0.07 0.169c-0.26 0.629-0.329 1.223-0.207 1.782 0.116 0.556 0.498 1.156 1.145 1.799 0.644 0.65 1.597 1.408 2.858 2.276v0c1.638 1.097 2.877 2.115 3.719 3.053 0.845 0.931 1.338 1.875 1.48 2.832 0.144 0.951-0.032 2.027-0.529 3.228v0l-0.149 0.359c-0.817 1.974-2.121 3.177-3.911 3.606-1.785 0.433-4.01 0.097-6.677-1.005z" fill="#e8ede9" data-fill-palette-color="primary"></path><path d="M124.071 279.846v0c-1.81-0.226-3.365-0.62-4.667-1.18-1.302-0.561-2.369-1.126-3.203-1.697v0l0.087-3.497c1.047 0.728 2.216 1.388 3.507 1.981 1.283 0.599 2.775 1.005 4.477 1.219v0c1.735 0.217 3.077 0.104 4.024-0.341 0.94-0.445 1.478-1.211 1.615-2.298v0l0.031-0.253c0.089-0.709-0.004-1.314-0.277-1.814-0.273-0.501-0.817-0.98-1.631-1.439-0.814-0.458-1.988-0.965-3.523-1.52v0c-1.832-0.648-3.261-1.32-4.285-2.018-1.017-0.696-1.707-1.486-2.07-2.367-0.362-0.889-0.468-1.931-0.319-3.127v0l0.027-0.212c0.245-1.958 1.113-3.359 2.603-4.201 1.491-0.842 3.607-1.092 6.349-0.749v0c1.769 0.221 3.277 0.612 4.524 1.172 1.247 0.561 2.251 1.139 3.013 1.735v0l-0.05 3.193c-0.919-0.712-2-1.337-3.242-1.876-1.242-0.546-2.666-0.92-4.273-1.121v0c-1.168-0.146-2.128-0.146-2.881 0-0.752 0.146-1.314 0.419-1.686 0.818-0.379 0.398-0.607 0.905-0.684 1.519v0l-0.023 0.182c-0.084 0.675 0.006 1.266 0.272 1.773 0.259 0.506 0.786 0.983 1.58 1.432 0.793 0.456 1.913 0.935 3.359 1.438v0c1.87 0.625 3.334 1.278 4.395 1.959 1.061 0.674 1.786 1.454 2.176 2.34 0.391 0.879 0.505 1.963 0.345 3.253v0l-0.049 0.385c-0.265 2.12-1.204 3.625-2.817 4.514-1.606 0.89-3.841 1.155-6.704 0.797z" fill="#e8ede9" data-fill-palette-color="primary"></path><path d="M161.465 279.101v0c-1.805 0.26-3.409 0.292-4.813 0.094-1.403-0.197-2.583-0.46-3.538-0.79v0l-0.839-3.395c1.203 0.425 2.505 0.753 3.906 0.984 1.396 0.239 2.942 0.236 4.64-0.008v0c1.731-0.249 2.995-0.713 3.791-1.391 0.789-0.677 1.106-1.558 0.949-2.643v0l-0.036-0.253c-0.102-0.707-0.351-1.266-0.747-1.677-0.396-0.411-1.047-0.729-1.953-0.956-0.906-0.227-2.173-0.406-3.8-0.536v0c-1.938-0.14-3.494-0.411-4.665-0.813-1.165-0.403-2.039-0.982-2.622-1.737-0.584-0.762-0.962-1.738-1.134-2.93v0l-0.03-0.213c-0.281-1.953 0.186-3.533 1.401-4.739 1.215-1.206 3.19-2.006 5.924-2.4v0c1.765-0.254 3.322-0.276 4.673-0.064 1.35 0.211 2.472 0.503 3.365 0.876v0l0.796 3.093c-1.075-0.443-2.282-0.761-3.623-0.953-1.342-0.199-2.814-0.183-4.418 0.048v0c-1.165 0.168-2.091 0.421-2.778 0.761-0.687 0.34-1.157 0.751-1.41 1.235-0.26 0.484-0.346 1.033-0.258 1.646v0l0.026 0.182c0.097 0.674 0.341 1.219 0.731 1.637 0.384 0.419 1.018 0.74 1.902 0.964 0.886 0.23 2.092 0.397 3.62 0.5v0c1.968 0.108 3.554 0.351 4.756 0.728 1.202 0.37 2.107 0.931 2.717 1.681 0.609 0.744 1.006 1.76 1.192 3.047v0l0.055 0.384c0.305 2.115-0.204 3.814-1.525 5.097-1.314 1.282-3.399 2.129-6.255 2.541z" fill="#e8ede9" data-fill-palette-color="primary"></path><path d="M198.362 268.007v0c-1.598 0.693-2.992 1.012-4.18 0.957-1.189-0.056-2.214-0.479-3.076-1.269-0.868-0.788-1.618-1.909-2.25-3.364v0l-5.687-13.111 3.409-1.479 5.508 12.699c0.59 1.361 1.339 2.231 2.245 2.609 0.903 0.372 2.092 0.239 3.565-0.4v0c0.837-0.363 1.603-0.803 2.298-1.32 0.687-0.52 1.297-1.097 1.832-1.729v0l0.961 3.088c-0.513 0.63-1.172 1.239-1.979 1.827-0.815 0.584-1.697 1.081-2.646 1.492zM195.4 247.762l-14.956 6.487-1.198-2.763 15.274-6.625zM186.116 248.907l-3.296 1.43-2.555-5.813 3.279-1.956z" fill="#e8ede9" data-fill-palette-color="primary"></path><path d="M228.908 248.935v0c-2.541 2.02-5.013 2.864-7.416 2.53-2.408-0.328-4.637-1.782-6.687-4.36v0l-2.147-2.701c-2.041-2.568-2.943-5.059-2.706-7.472 0.228-2.415 1.606-4.628 4.137-6.64v0c2.541-2.02 5.014-2.868 7.417-2.545 2.395 0.322 4.612 1.767 6.654 4.334v0l2.147 2.701c2.05 2.578 2.965 5.076 2.747 7.492-0.223 2.42-1.605 4.641-4.146 6.661zM227.002 246.537v0c1.572-1.249 2.397-2.666 2.477-4.25 0.074-1.58-0.586-3.247-1.979-4.999v0l-2.414-3.037c-1.385-1.742-2.851-2.75-4.399-3.023-1.557-0.275-3.122 0.212-4.693 1.461v0c-1.561 1.241-2.383 2.651-2.466 4.23-0.093 1.578 0.553 3.238 1.937 4.98v0l2.414 3.037c1.393 1.753 2.873 2.767 4.44 3.042 1.561 0.28 3.123-0.2 4.683-1.441z" fill="#e8ede9" data-fill-palette-color="primary"></path><path d="M241.867 214.599v0l-2.851-1.007 0.498-0.774c-1.257-1.524-1.982-3.099-2.174-4.725-0.182-1.628 0.311-3.249 1.481-4.864v0c0.287-0.397 0.577-0.733 0.87-1.009 0.298-0.272 0.582-0.502 0.854-0.692v0l3.075 1.95c-0.327 0.242-0.658 0.532-0.994 0.868-0.342 0.332-0.68 0.73-1.016 1.193v0c-0.998 1.378-1.483 2.854-1.456 4.429 0.022 1.571 0.593 3.114 1.713 4.631zM253.185 222.57l-2.204 3.042-18.328-13.276 2.15-2.968 5.299 4.066 0.385-0.062z" fill="#e8ede9" data-fill-palette-color="primary"></path><path d="M272.062 187.443v0c-1.222 3.219-2.932 5.347-5.131 6.384-2.192 1.039-4.755 1.001-7.688-0.112v0l-3.779-1.435c-2.978-1.13-4.983-2.761-6.015-4.893-1.035-2.125-0.998-4.648 0.11-7.568v0c0.746-1.966 1.735-3.469 2.967-4.508 1.223-1.035 2.635-1.631 4.238-1.787 1.594-0.152 3.322 0.126 5.187 0.833v0l0.782 0.297c0.458 0.174 0.913 0.365 1.366 0.573 0.45 0.214 0.887 0.435 1.31 0.662v0l-1.224 3.225c-0.684-0.289-1.336-0.555-1.958-0.797-0.615-0.241-1.183-0.46-1.704-0.658v0c-1.285-0.488-2.45-0.697-3.496-0.629-1.048 0.075-1.958 0.432-2.732 1.071-0.782 0.642-1.407 1.577-1.873 2.805v0c-0.691 1.82-0.681 3.385 0.03 4.695 0.704 1.308 2.04 2.336 4.006 3.082v0l2.023 0.768 0.437 0.144 2.014 0.764c0.884 0.336 1.729 0.507 2.534 0.515 0.805 0.007 1.571-0.168 2.296-0.526 0.728-0.364 1.388-0.925 1.982-1.683 0.593-0.757 1.114-1.728 1.563-2.911v0c0.522-1.374 0.826-2.722 0.913-4.043 0.089-1.327 0.022-2.627-0.202-3.898v0l2.912 1.476c0.234 1.166 0.291 2.436 0.169 3.81-0.115 1.376-0.461 2.824-1.037 4.344zM265.13 176.623l-5.713 15.05-2.643-1.003 5.713-15.05z" fill="#e8ede9" data-fill-palette-color="primary"></path><path d="M0.058 139.794c0-6.252 5.068-11.32 11.32-11.32 6.252 0 11.32 5.068 11.32 11.32 0 6.252-5.068 11.32-11.32 11.32-6.252 0-11.32-5.068-11.32-11.32z" fill="#e8ede9" data-fill-palette-color="primary"></path><path d="M257.302 139.794c0-6.252 5.068-11.32 11.32-11.32 6.252 0 11.32 5.068 11.32 11.32 0 6.252-5.068 11.32-11.32 11.32-6.252 0-11.32-5.068-11.32-11.32z" fill="#e8ede9" data-fill-palette-color="primary"></path></g><g id="text-1"></g></svg></g></svg></g></svg></g><g></g></svg></g><defs></defs></svg><rect width="280" height="280" fill="none" stroke="none" visibility="hidden"></rect></g></svg></g></svg>